<svg width="189" height="74" viewBox="0 0 189 74" fill="none" xmlns="http://www.w3.org/2000/svg">
<rect x="0.5" y="0.5" width="188" height="73" stroke="#404040"/>
<path d="M74.024 44H72.269V38.132H65.321V44H63.566V31.103H65.321V36.854H72.269V31.103H74.024V44ZM78.7015 34.883V44H77.0995V34.883H78.7015ZM79.0615 32.021C79.0615 32.177 79.0285 32.324 78.9625 32.462C78.9025 32.594 78.8185 32.714 78.7105 32.822C78.6085 32.924 78.4885 33.005 78.3505 33.065C78.2125 33.125 78.0655 33.155 77.9095 33.155C77.7535 33.155 77.6065 33.125 77.4685 33.065C77.3365 33.005 77.2165 32.924 77.1085 32.822C77.0065 32.714 76.9255 32.594 76.8655 32.462C76.8055 32.324 76.7755 32.177 76.7755 32.021C76.7755 31.865 76.8055 31.718 76.8655 31.58C76.9255 31.436 77.0065 31.313 77.1085 31.211C77.2165 31.103 77.3365 31.019 77.4685 30.959C77.6065 30.899 77.7535 30.869 77.9095 30.869C78.0655 30.869 78.2125 30.899 78.3505 30.959C78.4885 31.019 78.6085 31.103 78.7105 31.211C78.8185 31.313 78.9025 31.436 78.9625 31.58C79.0285 31.718 79.0615 31.865 79.0615 32.021ZM81.5249 44V34.883H82.4429C82.6169 34.883 82.7369 34.916 82.8029 34.982C82.8689 35.048 82.9139 35.162 82.9379 35.324L83.0459 36.746C83.3579 36.11 83.7419 35.615 84.1979 35.261C84.6599 34.901 85.1999 34.721 85.8179 34.721C86.0699 34.721 86.2979 34.751 86.5019 34.811C86.7059 34.865 86.8949 34.943 87.0689 35.045L86.8619 36.242C86.8199 36.392 86.7269 36.467 86.5829 36.467C86.4989 36.467 86.3699 36.44 86.1959 36.386C86.0219 36.326 85.7789 36.296 85.4669 36.296C84.9089 36.296 84.4409 36.458 84.0629 36.782C83.6909 37.106 83.3789 37.577 83.1269 38.195V44H81.5249ZM92.3937 34.739C92.9397 34.739 93.4437 34.832 93.9057 35.018C94.3677 35.198 94.7667 35.462 95.1027 35.81C95.4387 36.152 95.6997 36.578 95.8857 37.088C96.0777 37.592 96.1737 38.168 96.1737 38.816C96.1737 39.068 96.1467 39.236 96.0927 39.32C96.0387 39.404 95.9367 39.446 95.7867 39.446H89.7207C89.7327 40.022 89.8107 40.523 89.9547 40.949C90.0987 41.375 90.2967 41.732 90.5487 42.02C90.8007 42.302 91.1007 42.515 91.4487 42.659C91.7967 42.797 92.1867 42.866 92.6187 42.866C93.0207 42.866 93.3657 42.821 93.6537 42.731C93.9477 42.635 94.1997 42.533 94.4097 42.425C94.6197 42.317 94.7937 42.218 94.9317 42.128C95.0757 42.032 95.1987 41.984 95.3007 41.984C95.4327 41.984 95.5347 42.035 95.6067 42.137L96.0567 42.722C95.8587 42.962 95.6217 43.172 95.3457 43.352C95.0697 43.526 94.7727 43.67 94.4547 43.784C94.1427 43.898 93.8187 43.982 93.4827 44.036C93.1467 44.096 92.8137 44.126 92.4837 44.126C91.8537 44.126 91.2717 44.021 90.7377 43.811C90.2097 43.595 89.7507 43.283 89.3607 42.875C88.9767 42.461 88.6767 41.951 88.4607 41.345C88.2447 40.739 88.1367 40.043 88.1367 39.257C88.1367 38.621 88.2327 38.027 88.4247 37.475C88.6227 36.923 88.9047 36.446 89.2707 36.044C89.6367 35.636 90.0837 35.318 90.6117 35.09C91.1397 34.856 91.7337 34.739 92.3937 34.739ZM92.4297 35.918C91.6557 35.918 91.0467 36.143 90.6027 36.593C90.1587 37.037 89.8827 37.655 89.7747 38.447H94.7337C94.7337 38.075 94.6827 37.736 94.5807 37.43C94.4787 37.118 94.3287 36.851 94.1307 36.629C93.9327 36.401 93.6897 36.227 93.4017 36.107C93.1197 35.981 92.7957 35.918 92.4297 35.918ZM108.302 39.338C108.386 39.482 108.458 39.635 108.518 39.797C108.584 39.953 108.647 40.112 108.707 40.274C108.767 40.106 108.83 39.947 108.896 39.797C108.962 39.641 109.037 39.485 109.121 39.329L113.486 31.4C113.564 31.262 113.645 31.178 113.729 31.148C113.813 31.118 113.933 31.103 114.089 31.103H115.376V44H113.846V34.523C113.846 34.397 113.849 34.262 113.855 34.118C113.861 33.974 113.87 33.827 113.882 33.677L109.463 41.741C109.313 42.011 109.103 42.146 108.833 42.146H108.581C108.311 42.146 108.101 42.011 107.951 41.741L103.433 33.65C103.451 33.806 103.463 33.959 103.469 34.109C103.481 34.259 103.487 34.397 103.487 34.523V44H101.957V31.103H103.244C103.4 31.103 103.52 31.118 103.604 31.148C103.688 31.178 103.769 31.262 103.847 31.4L108.302 39.338ZM121.872 34.739C122.418 34.739 122.922 34.832 123.384 35.018C123.846 35.198 124.245 35.462 124.581 35.81C124.917 36.152 125.178 36.578 125.364 37.088C125.556 37.592 125.652 38.168 125.652 38.816C125.652 39.068 125.625 39.236 125.571 39.32C125.517 39.404 125.415 39.446 125.265 39.446H119.199C119.211 40.022 119.289 40.523 119.433 40.949C119.577 41.375 119.775 41.732 120.027 42.02C120.279 42.302 120.579 42.515 120.927 42.659C121.275 42.797 121.665 42.866 122.097 42.866C122.499 42.866 122.844 42.821 123.132 42.731C123.426 42.635 123.678 42.533 123.888 42.425C124.098 42.317 124.272 42.218 124.41 42.128C124.554 42.032 124.677 41.984 124.779 41.984C124.911 41.984 125.013 42.035 125.085 42.137L125.535 42.722C125.337 42.962 125.1 43.172 124.824 43.352C124.548 43.526 124.251 43.67 123.933 43.784C123.621 43.898 123.297 43.982 122.961 44.036C122.625 44.096 122.292 44.126 121.962 44.126C121.332 44.126 120.75 44.021 120.216 43.811C119.688 43.595 119.229 43.283 118.839 42.875C118.455 42.461 118.155 41.951 117.939 41.345C117.723 40.739 117.615 40.043 117.615 39.257C117.615 38.621 117.711 38.027 117.903 37.475C118.101 36.923 118.383 36.446 118.749 36.044C119.115 35.636 119.562 35.318 120.09 35.09C120.618 34.856 121.212 34.739 121.872 34.739ZM121.908 35.918C121.134 35.918 120.525 36.143 120.081 36.593C119.637 37.037 119.361 37.655 119.253 38.447H124.212C124.212 38.075 124.161 37.736 124.059 37.43C123.957 37.118 123.807 36.851 123.609 36.629C123.411 36.401 123.168 36.227 122.88 36.107C122.598 35.981 122.274 35.918 121.908 35.918Z" fill="#404040"/>
</svg>
